<svg xmlns="http://www.w3.org/2000/svg"
     width="0.9in" height="0.9in"
     viewBox="0 0 81 81">
  <path fill="black"
        d="M 16.91,2.45
           C 5.18,9.53 12.97,20.51 13.14,20.76
             12.98,20.91 6.03,28.11 3.87,33.89
             1.71,39.67 -0.81,49.03 3.43,58.04
             11.65,75.53 41.44,75.55 45.57,52.67
             47.43,42.44 37.42,37.84 31.59,41.08
             27.21,43.50 27.42,49.94 24.87,51.09
             22.52,52.15 20.48,49.49 20.20,47.52
             19.39,41.87 25.62,35.30 30.44,33.37
             38.38,30.15 46.66,32.88 51.35,40.00
             54.91,45.42 54.82,52.71 51.65,58.37
             49.53,62.17 43.77,65.91 45.36,72.29
             47.04,79.07 55.44,80.55 61.07,77.23
             67.43,73.46 71.61,64.43 72.90,57.31
             74.95,46.00 73.01,38.56 71.86,36.00
             73.31,34.48 82.68,24.34 76.36,17.31
             68.45,18.05 64.31,20.47 60.79,20.97
             47.57,10.72 33.42,12.07 28.53,12.73
             23.37,9.62 22.89,5.82 16.91,2.45 Z" />
</svg>
