<svg xmlns="http://www.w3.org/2000/svg"
     width="0.9in" height="0.788889in"
     viewBox="0 0 81 71">
  <path fill="#e4733e"
        d="M 10.64,2.76
           C 0.89,12.38 11.03,21.24 11.25,21.44
             11.13,21.62 6.06,30.25 5.31,36.38
             4.56,42.50 4.30,52.19 10.53,59.96
             22.62,75.04 51.58,68.09 50.25,44.88
             49.66,34.50 38.86,32.37 33.94,36.88
             30.25,40.26 31.96,46.47 29.75,48.19
             27.72,49.77 25.11,47.66 24.38,45.81
             22.27,40.50 26.79,32.66 31.02,29.65
             37.99,24.67 46.68,25.38 52.90,31.21
             57.63,35.65 59.25,42.75 57.49,49.00
             56.32,53.19 51.59,58.17 54.63,64.00
             57.85,70.20 66.37,69.68 71.06,65.13
             76.37,59.98 78.32,50.22 77.91,43.00
             77.25,31.52 73.63,24.74 71.91,22.52
             72.96,20.71 79.70,8.65 71.91,3.30
             64.39,5.87 60.94,9.19 57.63,10.50
             42.38,3.63 28.94,8.25 24.34,10.03
             18.59,8.22 17.24,4.63 10.64,2.76 Z" />
</svg>
